<?xml version="1.0" standalone="no"?>
<svg xmlns:xlink="http://www.w3.org/1999/xlink" id="wave" style="transform:rotate(0deg); transition: 0.3s" viewBox="0 0 1440 140" version="1.1" xmlns="http://www.w3.org/2000/svg"><defs><linearGradient id="sw-gradient-0" x1="0" x2="0" y1="1" y2="0"><stop stop-color="rgba(0, 255, 71, 1)" offset="0%"/><stop stop-color="rgba(0, 255, 71, 1)" offset="100%"/></linearGradient></defs><path style="transform:translate(0, 0px); opacity:1" fill="url(#sw-gradient-0)" d="M0,112L34.3,105C68.6,98,137,84,206,70C274.3,56,343,42,411,35C480,28,549,28,617,44.3C685.7,61,754,93,823,88.7C891.4,84,960,42,1029,30.3C1097.1,19,1166,37,1234,51.3C1302.9,65,1371,75,1440,70C1508.6,65,1577,47,1646,42C1714.3,37,1783,47,1851,49C1920,51,1989,47,2057,46.7C2125.7,47,2194,51,2263,65.3C2331.4,79,2400,103,2469,105C2537.1,107,2606,89,2674,77C2742.9,65,2811,61,2880,53.7C2948.6,47,3017,37,3086,28C3154.3,19,3223,9,3291,16.3C3360,23,3429,47,3497,49C3565.7,51,3634,33,3703,25.7C3771.4,19,3840,23,3909,35C3977.1,47,4046,65,4114,72.3C4182.9,79,4251,75,4320,70C4388.6,65,4457,61,4526,58.3C4594.3,56,4663,56,4731,58.3C4800,61,4869,65,4903,67.7L4937.1,70L4937.1,140L4902.9,140C4868.6,140,4800,140,4731,140C4662.9,140,4594,140,4526,140C4457.1,140,4389,140,4320,140C4251.4,140,4183,140,4114,140C4045.7,140,3977,140,3909,140C3840,140,3771,140,3703,140C3634.3,140,3566,140,3497,140C3428.6,140,3360,140,3291,140C3222.9,140,3154,140,3086,140C3017.1,140,2949,140,2880,140C2811.4,140,2743,140,2674,140C2605.7,140,2537,140,2469,140C2400,140,2331,140,2263,140C2194.3,140,2126,140,2057,140C1988.6,140,1920,140,1851,140C1782.9,140,1714,140,1646,140C1577.1,140,1509,140,1440,140C1371.4,140,1303,140,1234,140C1165.7,140,1097,140,1029,140C960,140,891,140,823,140C754.3,140,686,140,617,140C548.6,140,480,140,411,140C342.9,140,274,140,206,140C137.1,140,69,140,34,140L0,140Z"/></svg>